PathFileType  4	(X/Y/Z) C:\Users\antoi\Documents\MyRepositories\mobilecap\ResultsAnalysis
DataRate	CameraRate	NumFrames	NumMarkers	Units	OrigDataRate	OrigDataStartFrame	OrigNumFrames
100.0	100.0	4	51	mm	100.0	195	311
Frame#	Time	r_knee			r_shank_antsup			r_ankle			r_calc			r_5meta			r_toe			L_knee			L_shank_antsup			L_ankle			L_calc			L_5meta			L_toe			r_sh2			r_sh3			r_sh4			L_sh2			L_sh3			r_thigh1			r_thigh2			r_thigh3			r_thigh4			r_thigh5			L_thigh1			L_thigh2			L_thigh3			L_thigh4			r.ASIS			r.PSIS			L.ASIS			L.PSIS			C7			R_Shoulder			L_Shoulder			R_Sternum			L_Sternum			R_humerus			R_elbow_med			R_elbow_lat			R_forearm			R_wrist_radius			R_wrist_ulna			L_humerus			L_elbow_med			L_elbow_lat			L_forearm			L_wrist_radius			L_wrist_ulna			R_HJC			L_HJC			R_HJC_reg			L_HJC_reg			
		X1	Y1	Z1	X2	Y2	Z2	X3	Y3	Z3	X4	Y4	Z4	X5	Y5	Z5	X6	Y6	Z6	X7	Y7	Z7	X8	Y8	Z8	X9	Y9	Z9	X10	Y10	Z10	X11	Y11	Z11	X12	Y12	Z12	X13	Y13	Z13	X14	Y14	Z14	X15	Y15	Z15	X16	Y16	Z16	X17	Y17	Z17	X18	Y18	Z18	X19	Y19	Z19	X20	Y20	Z20	X21	Y21	Z21	X22	Y22	Z22	X23	Y23	Z23	X24	Y24	Z24	X25	Y25	Z25	X26	Y26	Z26	X27	Y27	Z27	X28	Y28	Z28	X29	Y29	Z29	X30	Y30	Z30	X31	Y31	Z31	X32	Y32	Z32	X33	Y33	Z33	X34	Y34	Z34	X35	Y35	Z35	X36	Y36	Z36	X37	Y37	Z37	X38	Y38	Z38	X39	Y39	Z39	X40	Y40	Z40	X41	Y41	Z41	X42	Y42	Z42	X43	Y43	Z43	X44	Y44	Z44	X45	Y45	Z45	X46	Y46	Z46	X47	Y47	Z47	X48	Y48	Z48	X49	Y49	Z49	X50	Y50	Z50	X51	Y51	Z51	

195	1.94000000	-138.05560	417.56359	-450.93680	-102.57747	344.38271	-461.73049	-315.03243	91.31488	-449.43201	-383.43160	64.75373	-490.51119	-220.32365	40.96719	-427.88680	-177.51333	54.54364	-483.46459	-112.20305	444.26016	-759.48783	-72.88910	351.36724	-758.17829	-227.84758	92.79987	-777.87899	-289.93224	52.01448	-736.41191	-130.19208	44.83186	-808.23711	-81.32702	64.96952	-755.22142	-166.10578	249.99890	-450.90828	-153.85456	384.60394	-421.54448	-225.91107	293.59337	-409.66478	-143.06645	394.79495	-792.28092	-188.52295	281.91468	-809.28584	-285.54285	600.76372	-373.76074	-198.43097	534.83962	-402.25545	-269.65088	449.47744	-426.85822	-359.26591	516.42241	-388.43351	-222.78627	469.55251	-404.67464	-321.53661	626.78338	-758.80697	-204.25827	555.58498	-759.17097	-384.95885	532.19249	-746.61580	-263.67184	461.03871	-731.09867	-314.44627	706.78148	-448.69943	-487.94883	803.11784	-520.66523	-317.25687	689.58206	-661.00665	-489.30101	792.53241	-600.20913	-129.46537	1101.15418	-529.97811	-52.57144	1056.40214	-428.02702	-67.41627	1082.59857	-637.44430	-49.21628	981.08120	-524.33507	-51.28827	985.27682	-553.13281	11.18213	1005.60553	-373.81494	65.97667	843.91429	-237.22210	105.87964	900.53944	-225.99893	196.23084	878.07739	-255.54851	317.44953	802.14331	-263.25571	319.14329	809.96145	-223.64574	-26.67636	1084.95164	-714.67195	7.46847	1020.78502	-919.25069	42.30607	1076.11178	-898.18763	136.68757	1055.35919	-948.68698	216.17496	1014.66935	-1043.17248	204.40708	1048.79650	-1060.20056	-417.31148	654.12714	-443.18510	-421.30094	639.43791	-650.13339	-402.78488	675.05226	-472.00631	-405.15519	656.50878	-611.35102	
196	1.95000000	-141.75118	418.40184	-452.99482	-105.60666	346.36284	-462.19813	-315.55346	91.01123	-449.41778	-383.61177	64.02817	-490.55720	-220.43642	41.05559	-427.89050	-177.79986	54.77115	-483.45833	-114.37908	445.39679	-758.29147	-74.97362	352.63644	-757.52690	-228.33137	92.92465	-778.26589	-290.22953	52.00260	-736.52202	-130.24840	44.99746	-808.13694	-81.58588	65.55605	-755.09646	-168.15062	251.30997	-451.03958	-157.18460	386.19417	-421.55887	-228.30258	294.38340	-409.78291	-145.25410	395.70662	-791.63158	-190.18798	282.69186	-809.07014	-285.08097	605.94125	-374.29203	-199.43616	538.17171	-403.04453	-272.41934	454.26193	-426.86109	-360.57093	522.96518	-388.54426	-225.13555	473.28775	-405.14998	-320.55969	631.70075	-758.03847	-203.97862	558.76749	-758.31405	-385.44615	539.17645	-747.44752	-265.55054	465.55991	-731.21731	-313.27261	713.59328	-448.69713	-485.99690	811.14875	-521.28786	-315.94122	695.58200	-660.45674	-487.15651	800.50597	-601.04356	-126.35853	1107.03693	-531.21381	-50.22353	1062.43872	-428.45531	-64.61055	1088.38048	-639.17290	-45.75997	988.18945	-525.30938	-48.21247	991.67200	-553.63271	11.85944	1010.98912	-371.61291	59.34795	851.30365	-229.46777	100.62829	907.38604	-219.21502	191.06420	882.05534	-246.65354	309.84225	802.35972	-251.40842	311.38699	810.99508	-211.94299	-25.63839	1090.69310	-717.76076	-1.26776	1029.93717	-924.77125	36.16302	1083.51332	-903.90094	127.50693	1061.91981	-959.07194	201.29116	1021.39060	-1058.37448	189.63404	1056.31823	-1073.96592	-416.80353	661.96011	-443.05332	-420.40637	646.42605	-649.94681	-401.93130	682.20838	-472.18700	-403.95333	663.65499	-611.21709	
197	1.96000000	-145.05756	419.80261	-453.93515	-108.40980	348.22405	-462.41932	-316.03843	90.85265	-449.25083	-383.91466	63.53400	-490.39981	-220.54099	41.13939	-427.84535	-178.01071	55.04972	-483.42639	-116.46745	446.57813	-757.18758	-77.07239	353.94659	-756.94867	-228.70648	93.09067	-778.71849	-290.32164	51.77734	-736.97602	-130.25383	45.13244	-808.01388	-81.75474	65.93912	-754.82172	-170.11149	252.72480	-450.94238	-160.70689	387.89391	-422.01118	-230.48425	295.20896	-409.93828	-147.41339	396.79577	-791.29323	-191.81139	283.62488	-808.94362	-284.26864	610.96874	-374.86200	-199.94591	541.57667	-403.94833	-274.87871	458.77715	-427.02913	-361.48267	529.41372	-388.54236	-227.46239	476.02841	-406.81889	-319.19394	636.77736	-757.48093	-203.72712	561.95846	-757.53607	-385.66374	546.43241	-748.82237	-267.23151	470.13290	-731.45006	-311.84312	720.50103	-448.53054	-483.78214	818.96515	-521.74704	-314.40363	701.60267	-659.85568	-484.92998	808.51225	-601.42745	-123.12676	1112.85199	-532.56479	-47.76280	1068.35688	-428.83424	-61.66961	1094.18204	-641.42915	-40.62945	997.31275	-527.10547	-44.02905	999.61651	-554.93239	12.20671	1016.05459	-368.83562	50.81699	858.79372	-220.66987	93.54244	914.01785	-211.20663	183.93841	885.54358	-236.03314	299.71345	801.67404	-237.56431	301.01718	811.03868	-198.17270	-24.91899	1096.11133	-721.33830	-11.38102	1038.96643	-930.47572	28.79537	1090.84858	-910.19395	116.59943	1068.01777	-970.26310	184.07030	1027.67363	-1074.20541	172.57624	1063.35470	-1088.23546	-415.92116	669.74480	-442.73017	-419.28677	653.41171	-649.56639	-400.61524	689.07427	-472.05732	-402.61574	670.86102	-610.89491	
198	1.97000000	-147.76026	421.43904	-454.17578	-111.01343	349.64993	-462.54887	-316.40722	90.71626	-448.88837	-384.22945	63.01149	-490.17305	-220.62988	41.18212	-427.79406	-178.16748	55.38083	-483.42634	-118.55247	447.85717	-756.38199	-79.14937	355.21594	-756.40093	-228.91652	93.16822	-778.96008	-290.31540	51.47654	-737.49860	-130.23666	45.21637	-807.88346	-81.87402	66.14644	-754.53727	-172.03346	254.16069	-450.65946	-163.69659	389.98826	-421.76346	-232.55151	295.95003	-409.82531	-149.66974	397.95032	-790.96305	-193.45925	284.55540	-808.73740	-283.31673	615.73970	-375.48349	-200.64155	544.54343	-404.17967	-277.01692	463.07620	-427.26087	-362.08322	535.67369	-388.54249	-229.42983	478.92708	-407.91403	-317.22362	642.37801	-757.25237	-203.34543	565.10266	-757.04770	-385.49609	553.37040	-749.22985	-268.70789	474.56175	-731.52495	-310.11116	727.09833	-448.60666	-481.31662	826.66367	-522.08803	-312.65768	707.84597	-659.57038	-482.57949	816.41657	-601.58889	-119.65548	1118.53737	-533.85906	-45.10774	1074.10222	-429.00222	-58.66993	1099.85510	-643.80693	-36.07427	1005.19558	-528.68524	-40.11304	1006.92508	-556.66993	12.22833	1020.69075	-365.60614	40.34835	866.44687	-211.30226	84.54505	920.47137	-202.33357	174.71780	888.56362	-224.05074	287.01226	800.38975	-222.08871	287.97982	810.33327	-182.55086	-24.39010	1101.28481	-725.31617	-22.70660	1047.90611	-936.09034	20.17006	1098.05214	-916.88204	103.95879	1073.70378	-981.94340	164.56884	1033.43240	-1090.18132	153.37537	1069.85995	-1102.73977	-414.65861	677.17355	-442.67231	-417.97315	660.53945	-649.48473	-398.94367	695.97285	-472.06599	-401.14607	678.10055	-610.72685	
